<mxfile host="65bd71144e">
    <diagram id="ZVlUovQWiH1aGqlF2gEy" name="Page-1">
        <mxGraphModel dx="815" dy="368" grid="1" gridSize="10" guides="1" tooltips="1" connect="1" arrows="1" fold="1" page="1" pageScale="1" pageWidth="827" pageHeight="1169" math="0" shadow="0">
            <root>
                <mxCell id="0"/>
                <mxCell id="1" parent="0"/>
                <mxCell id="2" value="项目" style="whiteSpace=wrap;html=1;align=center;fontFamily=&quot;Times New Roman&quot;, SimSun, sans-serif;fillColor=#dae8fc;strokeColor=#6c8ebf;" parent="1" vertex="1">
                    <mxGeometry x="80" y="170" width="100" height="40" as="geometry"/>
                </mxCell>
                <mxCell id="3" value="项目组（课程）" style="whiteSpace=wrap;html=1;align=center;fontFamily=&quot;Times New Roman&quot;, SimSun, sans-serif;fillColor=#dae8fc;strokeColor=#6c8ebf;" parent="1" vertex="1">
                    <mxGeometry x="380" y="170" width="100" height="40" as="geometry"/>
                </mxCell>
                <mxCell id="4" value="教授" style="whiteSpace=wrap;html=1;align=center;fontFamily=&quot;Times New Roman&quot;, SimSun, sans-serif;fillColor=#dae8fc;strokeColor=#6c8ebf;" parent="1" vertex="1">
                    <mxGeometry x="680" y="170" width="100" height="40" as="geometry"/>
                </mxCell>
                <mxCell id="5" value="参考" style="shape=rhombus;perimeter=rhombusPerimeter;whiteSpace=wrap;html=1;align=center;fontFamily=&quot;Times New Roman&quot;, SimSun, sans-serif;fillColor=#fff2cc;strokeColor=#d6b656;" parent="1" vertex="1">
                    <mxGeometry x="520" y="160" width="120" height="60" as="geometry"/>
                </mxCell>
                <mxCell id="6" value="参考" style="shape=rhombus;perimeter=rhombusPerimeter;whiteSpace=wrap;html=1;align=center;fontFamily=&quot;Times New Roman&quot;, SimSun, sans-serif;fillColor=#fff2cc;strokeColor=#d6b656;" parent="1" vertex="1">
                    <mxGeometry x="220" y="160" width="120" height="60" as="geometry"/>
                </mxCell>
                <mxCell id="7" value="最多组数" style="ellipse;whiteSpace=wrap;html=1;align=center;fontFamily=&quot;Times New Roman&quot;, SimSun, sans-serif;fillColor=#f5f5f5;strokeColor=#666666;fontColor=#333333;" parent="1" vertex="1">
                    <mxGeometry x="74" y="300" width="100" height="40" as="geometry"/>
                </mxCell>
                <mxCell id="8" value="项目编号" style="ellipse;whiteSpace=wrap;html=1;align=center;fontFamily=&quot;Times New Roman&quot;, SimSun, sans-serif;fillColor=#f5f5f5;strokeColor=#666666;fontColor=#333333;" parent="1" vertex="1">
                    <mxGeometry x="110" y="70" width="100" height="40" as="geometry"/>
                </mxCell>
                <mxCell id="9" value="项目简介" style="ellipse;whiteSpace=wrap;html=1;align=center;fontFamily=&quot;Times New Roman&quot;, SimSun, sans-serif;fillColor=#f5f5f5;strokeColor=#666666;fontColor=#333333;" parent="1" vertex="1">
                    <mxGeometry x="20" y="250" width="100" height="40" as="geometry"/>
                </mxCell>
                <mxCell id="10" value="项目名称" style="ellipse;whiteSpace=wrap;html=1;align=center;fontFamily=&quot;Times New Roman&quot;, SimSun, sans-serif;fillColor=#f5f5f5;strokeColor=#666666;fontColor=#333333;" parent="1" vertex="1">
                    <mxGeometry x="10" y="100" width="100" height="40" as="geometry"/>
                </mxCell>
                <mxCell id="11" value="" style="endArrow=none;html=1;rounded=0;fontFamily=&quot;Times New Roman&quot;, SimSun, sans-serif;" parent="1" source="8" target="2" edge="1">
                    <mxGeometry relative="1" as="geometry">
                        <mxPoint x="190" y="70" as="sourcePoint"/>
                        <mxPoint x="350" y="70" as="targetPoint"/>
                    </mxGeometry>
                </mxCell>
                <mxCell id="12" value="" style="endArrow=none;html=1;rounded=0;fontFamily=&quot;Times New Roman&quot;, SimSun, sans-serif;" parent="1" source="10" target="2" edge="1">
                    <mxGeometry relative="1" as="geometry">
                        <mxPoint x="200" y="70" as="sourcePoint"/>
                        <mxPoint x="360" y="70" as="targetPoint"/>
                    </mxGeometry>
                </mxCell>
                <mxCell id="13" value="" style="endArrow=none;html=1;rounded=0;fontFamily=&quot;Times New Roman&quot;, SimSun, sans-serif;" parent="1" source="9" target="2" edge="1">
                    <mxGeometry relative="1" as="geometry">
                        <mxPoint x="120" y="230" as="sourcePoint"/>
                        <mxPoint x="280" y="230" as="targetPoint"/>
                    </mxGeometry>
                </mxCell>
                <mxCell id="14" value="" style="endArrow=none;html=1;rounded=0;fontFamily=&quot;Times New Roman&quot;, SimSun, sans-serif;" parent="1" source="2" target="7" edge="1">
                    <mxGeometry relative="1" as="geometry">
                        <mxPoint x="180" y="250" as="sourcePoint"/>
                        <mxPoint x="290" y="190" as="targetPoint"/>
                    </mxGeometry>
                </mxCell>
                <mxCell id="15" value="" style="endArrow=none;html=1;rounded=0;fontFamily=&quot;Times New Roman&quot;, SimSun, sans-serif;" parent="1" source="6" target="2" edge="1">
                    <mxGeometry relative="1" as="geometry">
                        <mxPoint x="190" y="250" as="sourcePoint"/>
                        <mxPoint x="190" y="180" as="targetPoint"/>
                    </mxGeometry>
                </mxCell>
                <mxCell id="16" value="N" style="resizable=0;html=1;align=right;verticalAlign=bottom;fontFamily=&quot;Times New Roman&quot;, SimSun, sans-serif;" parent="15" connectable="0" vertex="1">
                    <mxGeometry x="1" relative="1" as="geometry"/>
                </mxCell>
                <mxCell id="17" value="" style="endArrow=none;html=1;rounded=0;fontFamily=&quot;Times New Roman&quot;, SimSun, sans-serif;" parent="1" source="6" target="3" edge="1">
                    <mxGeometry relative="1" as="geometry">
                        <mxPoint x="300" y="260" as="sourcePoint"/>
                        <mxPoint x="460" y="260" as="targetPoint"/>
                    </mxGeometry>
                </mxCell>
                <mxCell id="18" value="1" style="resizable=0;html=1;align=right;verticalAlign=bottom;fontFamily=&quot;Times New Roman&quot;, SimSun, sans-serif;" parent="17" connectable="0" vertex="1">
                    <mxGeometry x="1" relative="1" as="geometry"/>
                </mxCell>
                <mxCell id="19" value="" style="endArrow=none;html=1;rounded=0;fontFamily=&quot;Times New Roman&quot;, SimSun, sans-serif;" parent="1" source="5" target="4" edge="1">
                    <mxGeometry relative="1" as="geometry">
                        <mxPoint x="350" y="200" as="sourcePoint"/>
                        <mxPoint x="650" y="250" as="targetPoint"/>
                    </mxGeometry>
                </mxCell>
                <mxCell id="20" value="1" style="resizable=0;html=1;align=right;verticalAlign=bottom;fontFamily=&quot;Times New Roman&quot;, SimSun, sans-serif;" parent="19" connectable="0" vertex="1">
                    <mxGeometry x="1" relative="1" as="geometry"/>
                </mxCell>
                <mxCell id="21" value="" style="endArrow=none;html=1;rounded=0;fontFamily=&quot;Times New Roman&quot;, SimSun, sans-serif;" parent="1" source="5" target="3" edge="1">
                    <mxGeometry relative="1" as="geometry">
                        <mxPoint x="400" y="230" as="sourcePoint"/>
                        <mxPoint x="360" y="230" as="targetPoint"/>
                    </mxGeometry>
                </mxCell>
                <mxCell id="22" value="N" style="resizable=0;html=1;align=right;verticalAlign=bottom;fontFamily=&quot;Times New Roman&quot;, SimSun, sans-serif;" parent="21" connectable="0" vertex="1">
                    <mxGeometry x="1" relative="1" as="geometry"/>
                </mxCell>
                <mxCell id="23" value="计划名称" style="ellipse;whiteSpace=wrap;html=1;align=center;fontFamily=&quot;Times New Roman&quot;, SimSun, sans-serif;fillColor=#f5f5f5;strokeColor=#666666;fontColor=#333333;" parent="1" vertex="1">
                    <mxGeometry x="314" y="110" width="100" height="40" as="geometry"/>
                </mxCell>
                <mxCell id="24" value="计划编号" style="ellipse;whiteSpace=wrap;html=1;align=center;fontFamily=&quot;Times New Roman&quot;, SimSun, sans-serif;fillColor=#f5f5f5;strokeColor=#666666;fontColor=#333333;" parent="1" vertex="1">
                    <mxGeometry x="440" y="110" width="100" height="40" as="geometry"/>
                </mxCell>
                <mxCell id="26" value="" style="endArrow=none;html=1;rounded=0;fontFamily=&quot;Times New Roman&quot;, SimSun, sans-serif;" parent="1" source="23" target="3" edge="1">
                    <mxGeometry relative="1" as="geometry">
                        <mxPoint x="390" y="130" as="sourcePoint"/>
                        <mxPoint x="550" y="130" as="targetPoint"/>
                    </mxGeometry>
                </mxCell>
                <mxCell id="27" value="" style="endArrow=none;html=1;rounded=0;fontFamily=&quot;Times New Roman&quot;, SimSun, sans-serif;" parent="1" source="24" target="3" edge="1">
                    <mxGeometry relative="1" as="geometry">
                        <mxPoint x="415.8221909517513" y="119.86394560009262" as="sourcePoint"/>
                        <mxPoint x="433.9999999999999" y="180" as="targetPoint"/>
                    </mxGeometry>
                </mxCell>
                <mxCell id="28" value="用户名" style="ellipse;whiteSpace=wrap;html=1;align=center;fontFamily=&quot;Times New Roman&quot;, SimSun, sans-serif;fillColor=#f5f5f5;strokeColor=#666666;fontColor=#333333;" parent="1" vertex="1">
                    <mxGeometry x="600" y="80" width="100" height="40" as="geometry"/>
                </mxCell>
                <mxCell id="29" value="称谓" style="ellipse;whiteSpace=wrap;html=1;align=center;fontFamily=&quot;Times New Roman&quot;, SimSun, sans-serif;fillColor=#f5f5f5;strokeColor=#666666;fontColor=#333333;" parent="1" vertex="1">
                    <mxGeometry x="660" y="30" width="100" height="40" as="geometry"/>
                </mxCell>
                <mxCell id="30" value="密码" style="ellipse;whiteSpace=wrap;html=1;align=center;fontFamily=&quot;Times New Roman&quot;, SimSun, sans-serif;fillColor=#f5f5f5;strokeColor=#666666;fontColor=#333333;" parent="1" vertex="1">
                    <mxGeometry x="720" y="80" width="100" height="40" as="geometry"/>
                </mxCell>
                <mxCell id="31" value="" style="endArrow=none;html=1;rounded=0;fontFamily=&quot;Times New Roman&quot;, SimSun, sans-serif;" parent="1" source="29" target="4" edge="1">
                    <mxGeometry relative="1" as="geometry">
                        <mxPoint x="540" y="200" as="sourcePoint"/>
                        <mxPoint x="700" y="200" as="targetPoint"/>
                    </mxGeometry>
                </mxCell>
                <mxCell id="32" value="" style="endArrow=none;html=1;rounded=0;fontFamily=&quot;Times New Roman&quot;, SimSun, sans-serif;" parent="1" source="4" target="30" edge="1">
                    <mxGeometry relative="1" as="geometry">
                        <mxPoint x="540" y="200" as="sourcePoint"/>
                        <mxPoint x="700" y="200" as="targetPoint"/>
                    </mxGeometry>
                </mxCell>
                <mxCell id="33" value="" style="endArrow=none;html=1;rounded=0;fontFamily=&quot;Times New Roman&quot;, SimSun, sans-serif;" parent="1" source="28" target="4" edge="1">
                    <mxGeometry relative="1" as="geometry">
                        <mxPoint x="722.8287951857517" y="79.96796601706956" as="sourcePoint"/>
                        <mxPoint x="737.1428571428571" y="180" as="targetPoint"/>
                    </mxGeometry>
                </mxCell>
                <mxCell id="35" value="参考" style="shape=rhombus;perimeter=rhombusPerimeter;whiteSpace=wrap;html=1;align=center;fontFamily=&quot;Times New Roman&quot;, SimSun, sans-serif;fillColor=#fff2cc;strokeColor=#d6b656;" parent="1" vertex="1">
                    <mxGeometry x="240" y="300" width="120" height="60" as="geometry"/>
                </mxCell>
                <mxCell id="36" value="小组" style="whiteSpace=wrap;html=1;align=center;fontFamily=&quot;Times New Roman&quot;, SimSun, sans-serif;fillColor=#dae8fc;strokeColor=#6c8ebf;" parent="1" vertex="1">
                    <mxGeometry x="380" y="440" width="100" height="40" as="geometry"/>
                </mxCell>
                <mxCell id="37" value="" style="endArrow=none;html=1;rounded=0;fontFamily=&quot;Times New Roman&quot;, SimSun, sans-serif;" parent="1" source="48" target="57" edge="1">
                    <mxGeometry relative="1" as="geometry">
                        <mxPoint x="440" y="290" as="sourcePoint"/>
                        <mxPoint x="600" y="290" as="targetPoint"/>
                    </mxGeometry>
                </mxCell>
                <mxCell id="40" value="" style="endArrow=none;html=1;rounded=0;fontFamily=&quot;Times New Roman&quot;, SimSun, sans-serif;" parent="1" source="35" target="2" edge="1">
                    <mxGeometry relative="1" as="geometry">
                        <mxPoint x="338.10218978102193" y="420.94890510948903" as="sourcePoint"/>
                        <mxPoint x="424" y="445.63218390804593" as="targetPoint"/>
                    </mxGeometry>
                </mxCell>
                <mxCell id="41" value="1" style="resizable=0;html=1;align=right;verticalAlign=bottom;fontFamily=&quot;Times New Roman&quot;, SimSun, sans-serif;" parent="40" connectable="0" vertex="1">
                    <mxGeometry x="1" relative="1" as="geometry"/>
                </mxCell>
                <mxCell id="47" value="包含" style="shape=rhombus;perimeter=rhombusPerimeter;whiteSpace=wrap;html=1;align=center;fontFamily=&quot;Times New Roman&quot;, SimSun, sans-serif;fillColor=#ffe6cc;strokeColor=#d79b00;" parent="1" vertex="1">
                    <mxGeometry x="490" y="330" width="120" height="60" as="geometry"/>
                </mxCell>
                <mxCell id="48" value="学生" style="whiteSpace=wrap;html=1;align=center;fontFamily=&quot;Times New Roman&quot;, SimSun, sans-serif;fillColor=#dae8fc;strokeColor=#6c8ebf;" parent="1" vertex="1">
                    <mxGeometry x="650" y="320" width="100" height="40" as="geometry"/>
                </mxCell>
                <mxCell id="49" value="" style="endArrow=none;html=1;rounded=0;fontFamily=&quot;Times New Roman&quot;, SimSun, sans-serif;" parent="1" source="47" target="36" edge="1">
                    <mxGeometry relative="1" as="geometry">
                        <mxPoint x="500" y="400" as="sourcePoint"/>
                        <mxPoint x="660" y="400" as="targetPoint"/>
                    </mxGeometry>
                </mxCell>
                <mxCell id="50" value="N" style="resizable=0;html=1;align=right;verticalAlign=bottom;fontFamily=&quot;Times New Roman&quot;, SimSun, sans-serif;" parent="49" connectable="0" vertex="1">
                    <mxGeometry x="1" relative="1" as="geometry"/>
                </mxCell>
                <mxCell id="51" value="" style="endArrow=none;html=1;rounded=0;fontFamily=&quot;Times New Roman&quot;, SimSun, sans-serif;" parent="1" source="47" target="48" edge="1">
                    <mxGeometry relative="1" as="geometry">
                        <mxPoint x="650" y="340" as="sourcePoint"/>
                        <mxPoint x="500" y="466.875" as="targetPoint"/>
                    </mxGeometry>
                </mxCell>
                <mxCell id="52" value="N" style="resizable=0;html=1;align=right;verticalAlign=bottom;fontFamily=&quot;Times New Roman&quot;, SimSun, sans-serif;" parent="51" connectable="0" vertex="1">
                    <mxGeometry x="1" relative="1" as="geometry"/>
                </mxCell>
                <mxCell id="53" value="用户名" style="ellipse;whiteSpace=wrap;html=1;align=center;fontFamily=&quot;Times New Roman&quot;, SimSun, sans-serif;fillColor=#f5f5f5;strokeColor=#666666;fontColor=#333333;" parent="1" vertex="1">
                    <mxGeometry x="580" y="380" width="100" height="40" as="geometry"/>
                </mxCell>
                <mxCell id="54" value="称谓" style="ellipse;whiteSpace=wrap;html=1;align=center;fontFamily=&quot;Times New Roman&quot;, SimSun, sans-serif;fillColor=#f5f5f5;strokeColor=#666666;fontColor=#333333;" parent="1" vertex="1">
                    <mxGeometry x="630" y="420" width="100" height="40" as="geometry"/>
                </mxCell>
                <mxCell id="55" value="密码" style="ellipse;whiteSpace=wrap;html=1;align=center;fontFamily=&quot;Times New Roman&quot;, SimSun, sans-serif;fillColor=#f5f5f5;strokeColor=#666666;fontColor=#333333;" parent="1" vertex="1">
                    <mxGeometry x="707" y="380" width="100" height="40" as="geometry"/>
                </mxCell>
                <mxCell id="57" value="能力指标" style="ellipse;whiteSpace=wrap;html=1;align=center;fontFamily=&quot;Times New Roman&quot;, SimSun, sans-serif;fillColor=#f5f5f5;strokeColor=#666666;fontColor=#333333;" parent="1" vertex="1">
                    <mxGeometry x="640" y="260" width="100" height="40" as="geometry"/>
                </mxCell>
                <mxCell id="58" value="" style="endArrow=none;html=1;rounded=0;fontFamily=&quot;Times New Roman&quot;, SimSun, sans-serif;" parent="1" source="53" target="48" edge="1">
                    <mxGeometry relative="1" as="geometry">
                        <mxPoint x="713.3333333333333" y="330" as="sourcePoint"/>
                        <mxPoint x="700" y="340" as="targetPoint"/>
                    </mxGeometry>
                </mxCell>
                <mxCell id="59" value="" style="endArrow=none;html=1;rounded=0;fontFamily=&quot;Times New Roman&quot;, SimSun, sans-serif;" parent="1" source="54" target="48" edge="1">
                    <mxGeometry relative="1" as="geometry">
                        <mxPoint x="675.6688727101989" y="391.0074270179407" as="sourcePoint"/>
                        <mxPoint x="693.3333333333333" y="370" as="targetPoint"/>
                    </mxGeometry>
                </mxCell>
                <mxCell id="60" value="" style="endArrow=none;html=1;rounded=0;fontFamily=&quot;Times New Roman&quot;, SimSun, sans-serif;" parent="1" source="55" target="48" edge="1">
                    <mxGeometry relative="1" as="geometry">
                        <mxPoint x="710" y="430" as="sourcePoint"/>
                        <mxPoint x="710" y="370" as="targetPoint"/>
                    </mxGeometry>
                </mxCell>
                <mxCell id="61" value="组名" style="ellipse;whiteSpace=wrap;html=1;align=center;fontFamily=&quot;Times New Roman&quot;, SimSun, sans-serif;fillColor=#f5f5f5;strokeColor=#666666;fontColor=#333333;" parent="1" vertex="1">
                    <mxGeometry x="320" y="510" width="100" height="40" as="geometry"/>
                </mxCell>
                <mxCell id="62" value="编号" style="ellipse;whiteSpace=wrap;html=1;align=center;fontFamily=&quot;Times New Roman&quot;, SimSun, sans-serif;fillColor=#f5f5f5;strokeColor=#666666;fontColor=#333333;" parent="1" vertex="1">
                    <mxGeometry x="440" y="510" width="100" height="40" as="geometry"/>
                </mxCell>
                <mxCell id="63" value="" style="endArrow=none;html=1;rounded=0;fontFamily=&quot;Times New Roman&quot;, SimSun, sans-serif;" parent="1" source="61" target="36" edge="1">
                    <mxGeometry relative="1" as="geometry">
                        <mxPoint x="440" y="500" as="sourcePoint"/>
                        <mxPoint x="600" y="500" as="targetPoint"/>
                    </mxGeometry>
                </mxCell>
                <mxCell id="64" value="" style="endArrow=none;html=1;rounded=0;fontFamily=&quot;Times New Roman&quot;, SimSun, sans-serif;" parent="1" source="62" target="36" edge="1">
                    <mxGeometry relative="1" as="geometry">
                        <mxPoint x="402.71106285016185" y="540.657078271493" as="sourcePoint"/>
                        <mxPoint x="436.66666666666674" y="490" as="targetPoint"/>
                    </mxGeometry>
                </mxCell>
                <mxCell id="73" value="志愿选择" style="whiteSpace=wrap;html=1;align=center;fillColor=#dae8fc;strokeColor=#6c8ebf;fontFamily=&quot;Times New Roman&quot;, SimSun, sans-serif;" parent="1" vertex="1">
                    <mxGeometry x="100" y="460" width="100" height="40" as="geometry"/>
                </mxCell>
                <mxCell id="74" value="优先级" style="ellipse;whiteSpace=wrap;html=1;align=center;fontFamily=&quot;Times New Roman&quot;, SimSun, sans-serif;fillColor=#f5f5f5;strokeColor=#666666;fontColor=#333333;" parent="1" vertex="1">
                    <mxGeometry x="40" y="530" width="100" height="40" as="geometry"/>
                </mxCell>
                <mxCell id="75" value="" style="endArrow=none;html=1;fontFamily=&quot;Times New Roman&quot;, SimSun, sans-serif;" parent="1" source="74" target="73" edge="1">
                    <mxGeometry width="50" height="50" relative="1" as="geometry">
                        <mxPoint x="140" y="520" as="sourcePoint"/>
                        <mxPoint x="190" y="470" as="targetPoint"/>
                    </mxGeometry>
                </mxCell>
                <mxCell id="81" value="选择的项目" style="ellipse;whiteSpace=wrap;html=1;align=center;fontFamily=&quot;Times New Roman&quot;, SimSun, sans-serif;fillColor=#f5f5f5;strokeColor=#666666;fontColor=#333333;" vertex="1" parent="1">
                    <mxGeometry x="380" y="560" width="100" height="40" as="geometry"/>
                </mxCell>
                <mxCell id="84" value="" style="endArrow=none;html=1;fontFamily=&quot;Times New Roman&quot;, SimSun, sans-serif;" edge="1" parent="1" source="81" target="36">
                    <mxGeometry width="50" height="50" relative="1" as="geometry">
                        <mxPoint x="330" y="510" as="sourcePoint"/>
                        <mxPoint x="380" y="460" as="targetPoint"/>
                    </mxGeometry>
                </mxCell>
                <mxCell id="85" value="参考" style="shape=rhombus;perimeter=rhombusPerimeter;whiteSpace=wrap;html=1;align=center;fontFamily=&quot;Times New Roman&quot;, SimSun, sans-serif;fillColor=#fff2cc;strokeColor=#d6b656;" vertex="1" parent="1">
                    <mxGeometry x="370" y="270" width="120" height="60" as="geometry"/>
                </mxCell>
                <mxCell id="87" value="" style="endArrow=none;html=1;rounded=0;fontFamily=&quot;Times New Roman&quot;, SimSun, sans-serif;" edge="1" parent="1" source="35" target="36">
                    <mxGeometry relative="1" as="geometry">
                        <mxPoint x="310" y="390" as="sourcePoint"/>
                        <mxPoint x="470" y="390" as="targetPoint"/>
                    </mxGeometry>
                </mxCell>
                <mxCell id="88" value="N" style="resizable=0;html=1;align=right;verticalAlign=bottom;fontFamily=&quot;Times New Roman&quot;, SimSun, sans-serif;" connectable="0" vertex="1" parent="87">
                    <mxGeometry x="1" relative="1" as="geometry"/>
                </mxCell>
                <mxCell id="89" value="" style="endArrow=none;html=1;rounded=0;fontFamily=&quot;Times New Roman&quot;, SimSun, sans-serif;" edge="1" parent="1" source="85" target="3">
                    <mxGeometry relative="1" as="geometry">
                        <mxPoint x="420" y="310" as="sourcePoint"/>
                        <mxPoint x="148.33333333333337" y="220" as="targetPoint"/>
                    </mxGeometry>
                </mxCell>
                <mxCell id="90" value="1" style="resizable=0;html=1;align=right;verticalAlign=bottom;fontFamily=&quot;Times New Roman&quot;, SimSun, sans-serif;" connectable="0" vertex="1" parent="89">
                    <mxGeometry x="1" relative="1" as="geometry"/>
                </mxCell>
                <mxCell id="91" value="" style="endArrow=none;html=1;rounded=0;fontFamily=&quot;Times New Roman&quot;, SimSun, sans-serif;" edge="1" parent="1" source="85" target="36">
                    <mxGeometry relative="1" as="geometry">
                        <mxPoint x="440" y="280" as="sourcePoint"/>
                        <mxPoint x="440" y="220" as="targetPoint"/>
                    </mxGeometry>
                </mxCell>
                <mxCell id="92" value="N" style="resizable=0;html=1;align=right;verticalAlign=bottom;fontFamily=&quot;Times New Roman&quot;, SimSun, sans-serif;" connectable="0" vertex="1" parent="91">
                    <mxGeometry x="1" relative="1" as="geometry"/>
                </mxCell>
                <mxCell id="93" value="隶属的项目组" style="ellipse;whiteSpace=wrap;html=1;align=center;fontFamily=&quot;Times New Roman&quot;, SimSun, sans-serif;fillColor=#f5f5f5;strokeColor=#666666;fontColor=#333333;" vertex="1" parent="1">
                    <mxGeometry x="510" y="450" width="100" height="40" as="geometry"/>
                </mxCell>
                <mxCell id="94" value="" style="endArrow=none;html=1;fontFamily=&quot;Times New Roman&quot;, SimSun, sans-serif;" edge="1" parent="1" source="36" target="93">
                    <mxGeometry width="50" height="50" relative="1" as="geometry">
                        <mxPoint x="590" y="550" as="sourcePoint"/>
                        <mxPoint x="640" y="500" as="targetPoint"/>
                    </mxGeometry>
                </mxCell>
                <mxCell id="95" value="参考" style="shape=rhombus;perimeter=rhombusPerimeter;whiteSpace=wrap;html=1;align=center;fontFamily=&quot;Times New Roman&quot;, SimSun, sans-serif;fillColor=#fff2cc;strokeColor=#d6b656;" vertex="1" parent="1">
                    <mxGeometry x="150" y="350" width="120" height="60" as="geometry"/>
                </mxCell>
                <mxCell id="96" value="参考" style="shape=rhombus;perimeter=rhombusPerimeter;whiteSpace=wrap;html=1;align=center;fontFamily=&quot;Times New Roman&quot;, SimSun, sans-serif;fillColor=#fff2cc;strokeColor=#d6b656;" vertex="1" parent="1">
                    <mxGeometry x="230" y="410" width="120" height="60" as="geometry"/>
                </mxCell>
                <mxCell id="98" value="" style="endArrow=none;html=1;rounded=0;fontFamily=&quot;Times New Roman&quot;, SimSun, sans-serif;" edge="1" parent="1" source="96" target="36">
                    <mxGeometry relative="1" as="geometry">
                        <mxPoint x="120" y="410" as="sourcePoint"/>
                        <mxPoint x="280" y="410" as="targetPoint"/>
                    </mxGeometry>
                </mxCell>
                <mxCell id="99" value="1" style="resizable=0;html=1;align=right;verticalAlign=bottom;fontFamily=&quot;Times New Roman&quot;, SimSun, sans-serif;" connectable="0" vertex="1" parent="98">
                    <mxGeometry x="1" relative="1" as="geometry"/>
                </mxCell>
                <mxCell id="101" value="" style="endArrow=none;html=1;rounded=0;fontFamily=&quot;Times New Roman&quot;, SimSun, sans-serif;" edge="1" parent="1" source="96" target="73">
                    <mxGeometry relative="1" as="geometry">
                        <mxPoint x="346.66666666666674" y="456.66666666666663" as="sourcePoint"/>
                        <mxPoint x="390" y="462.8571428571429" as="targetPoint"/>
                    </mxGeometry>
                </mxCell>
                <mxCell id="102" value="N" style="resizable=0;html=1;align=right;verticalAlign=bottom;fontFamily=&quot;Times New Roman&quot;, SimSun, sans-serif;" connectable="0" vertex="1" parent="101">
                    <mxGeometry x="1" relative="1" as="geometry"/>
                </mxCell>
                <mxCell id="103" value="" style="endArrow=none;html=1;rounded=0;fontFamily=&quot;Times New Roman&quot;, SimSun, sans-serif;" edge="1" parent="1" source="95" target="2">
                    <mxGeometry relative="1" as="geometry">
                        <mxPoint x="261.81818181818176" y="460.9090909090909" as="sourcePoint"/>
                        <mxPoint x="210" y="475.71428571428567" as="targetPoint"/>
                    </mxGeometry>
                </mxCell>
                <mxCell id="104" value="1" style="resizable=0;html=1;align=right;verticalAlign=bottom;fontFamily=&quot;Times New Roman&quot;, SimSun, sans-serif;" connectable="0" vertex="1" parent="103">
                    <mxGeometry x="1" relative="1" as="geometry"/>
                </mxCell>
                <mxCell id="105" value="" style="endArrow=none;html=1;rounded=0;fontFamily=&quot;Times New Roman&quot;, SimSun, sans-serif;" edge="1" parent="1" source="95" target="73">
                    <mxGeometry relative="1" as="geometry">
                        <mxPoint x="271.81818181818176" y="470.9090909090909" as="sourcePoint"/>
                        <mxPoint x="220" y="485.71428571428567" as="targetPoint"/>
                    </mxGeometry>
                </mxCell>
                <mxCell id="106" value="N" style="resizable=0;html=1;align=right;verticalAlign=bottom;fontFamily=&quot;Times New Roman&quot;, SimSun, sans-serif;" connectable="0" vertex="1" parent="105">
                    <mxGeometry x="1" relative="1" as="geometry"/>
                </mxCell>
                <mxCell id="107" value="隶属项目组" style="ellipse;whiteSpace=wrap;html=1;align=center;fontFamily=&quot;Times New Roman&quot;, SimSun, sans-serif;fillColor=#f5f5f5;strokeColor=#666666;fontColor=#333333;" vertex="1" parent="1">
                    <mxGeometry x="190" y="110" width="100" height="40" as="geometry"/>
                </mxCell>
                <mxCell id="109" value="" style="endArrow=none;html=1;rounded=0;fontFamily=&quot;Times New Roman&quot;, SimSun, sans-serif;" edge="1" parent="1" source="2" target="107">
                    <mxGeometry relative="1" as="geometry">
                        <mxPoint x="320" y="220" as="sourcePoint"/>
                        <mxPoint x="320" y="140" as="targetPoint"/>
                    </mxGeometry>
                </mxCell>
                <mxCell id="110" value="隶属教师" style="ellipse;whiteSpace=wrap;html=1;align=center;fontFamily=&quot;Times New Roman&quot;, SimSun, sans-serif;fillColor=#f5f5f5;strokeColor=#666666;fontColor=#333333;" vertex="1" parent="1">
                    <mxGeometry x="380" y="50" width="100" height="40" as="geometry"/>
                </mxCell>
                <mxCell id="111" value="" style="endArrow=none;html=1;rounded=0;fontFamily=&quot;Times New Roman&quot;, SimSun, sans-serif;" edge="1" parent="1" source="110" target="3">
                    <mxGeometry relative="1" as="geometry">
                        <mxPoint x="370" y="140" as="sourcePoint"/>
                        <mxPoint x="530" y="140" as="targetPoint"/>
                    </mxGeometry>
                </mxCell>
            </root>
        </mxGraphModel>
    </diagram>
</mxfile>